<svg height="480pt" viewBox="0 -8 480 480" width="480pt" xmlns="http://www.w3.org/2000/svg"><path d="m424 232h-160c-8.824219.027344-15.972656 7.175781-16 16v96c.027344 8.824219 7.175781 15.972656 16 16h160c8.824219-.027344 15.972656-7.175781 16-16v-96c-.027344-8.824219-7.175781-15.972656-16-16zm0 0" fill="#c6c5ca"/><path d="m328 312v96h32v-96zm0 0" fill="#acabb1"/><path d="m384 16v112c-.027344 8.824219-7.175781 15.972656-16 16h-104l-48 48v-48h-56c-8.824219-.027344-15.972656-7.175781-16-16v-112c.027344-8.824219 7.175781-15.9726562 16-16h208c8.824219.0273438 15.972656 7.175781 16 16zm0 0" fill="#ffd422"/><path d="m168 408h-112v-39.839844c-.015625-14.296875 9.453125-26.867187 23.199219-30.800781l21.199219-6.078125 27.601562 20.71875 27.601562-20.71875 21.199219 6.078125c13.746094 3.933594 23.214844 16.503906 23.199219 30.800781v39.839844zm0 0" fill="#3d9ae2"/><path d="m155.601562 331.28125-27.601562 20.71875-27.601562-20.71875 11.601562-3.28125v-20.320312c9.890625 5.761718 22.109375 5.761718 32 0v20.320312zm0 0" fill="#ffdaaa"/><path d="m160 264v16c-.015625 8.484375-3.378906 16.621094-9.359375 22.640625-1.996094 1.945313-4.226563 3.640625-6.640625 5.039063-9.894531 5.714843-22.085938 5.714843-31.984375.007812s-16.003906-16.261719-16.015625-27.6875v-16h9.441406c9.484375.019531 18.761719-2.796875 26.636719-8.078125l11.921875-7.921875 3.601562 7.121094c2.355469 4.84375 7.039063 8.140625 12.398438 8.71875zm0 0" fill="#ffdaaa"/><path d="m24 432h432v32h-432zm0 0" fill="#898890"/><path d="m128 216c22.089844 0 40 17.910156 40 40v8h-6.078125c-.644531.027344-1.289063-.027344-1.921875-.160156-5.359375-.578125-10.042969-3.875-12.398438-8.71875l-3.601562-7.121094-11.921875 7.921875c-7.875 5.28125-17.152344 8.097656-26.636719 8.078125h-17.441406v-8c0-22.089844 17.910156-40 40-40zm0 0" fill="#57565c"/><path d="m144 307.679688v8c-9.890625 5.761718-22.109375 5.761718-32 0v-8c9.890625 5.761718 22.109375 5.761718 32 0zm0 0" fill="#f2ca96"/><path d="m80 368h16v40h-16zm0 0" fill="#1e81ce"/><path d="m160 368h16v40h-16zm0 0" fill="#1e81ce"/><path d="m304 400h80v16h-80zm0 0" fill="#787680"/><path d="m0 424h480v16h-480zm0 0" fill="#787680"/><path d="m192 32h144v16h-144zm0 0" fill="#ddb200"/><path d="m192 64h144v16h-144zm0 0" fill="#ddb200"/><path d="m192 96h144v16h-144zm0 0" fill="#ddb200"/><g fill="#ffa733"><path d="m48 264h-40c-4.417969 0-8-3.582031-8-8v-192c0-4.417969 3.582031-8 8-8h48v16h-40v176h32zm0 0"/><path d="m72 56h16v16h-16zm0 0"/><path d="m104 56h16v16h-16zm0 0"/><path d="m448 144h-16v-72h-24v-16h32c4.417969 0 8 3.582031 8 8zm0 0"/><path d="m432 160h16v16h-16zm0 0"/><path d="m432 192h16v16h-16zm0 0"/></g></svg>