<?xml version="1.0" encoding="utf-8"?>
<!-- Generator: Adobe Illustrator 23.0.3, SVG Export Plug-In . SVG Version: 6.00 Build 0)  -->
<svg version="1.1" id="Layer_1" xmlns="http://www.w3.org/2000/svg" xmlns:xlink="http://www.w3.org/1999/xlink" x="0px" y="0px"
	 viewBox="0 0 1529.14 1168.23" style="enable-background:new 0 0 1529.14 1168.23;" xml:space="preserve">
<style type="text/css">
	.st0{fill:#D7EFFD;}
	.st1{fill:#82CDF8;}
	.st2{fill:#35ADF5;}
	.st3{fill:#17597C;}
	.st4{fill:#2781B7;}
	.st5{fill:none;stroke:#17597C;stroke-width:13;stroke-linecap:round;stroke-miterlimit:10;}
	.st6{fill:none;stroke:#35ADF5;stroke-width:13;stroke-linecap:round;stroke-miterlimit:10;}
	.st7{fill:#ACDDFA;}
	.st8{fill:none;stroke:#17597C;stroke-width:13;stroke-linecap:round;stroke-linejoin:round;stroke-miterlimit:10;}
	.st9{fill:#804500;}
	.st10{fill:#FDB666;}
	.st11{fill:#FFE7CC;}
	.st12{fill:#FD8701;}
	.st13{fill:#D6EEFC;}
	.st14{fill:#FFFFFF;}
	.st15{fill:#BC6700;}
	.st16{fill:#FECF99;}
	.st17{fill:#BB6700;}
</style>
<path class="st7" d="M860.32,426.21l7.29-2.79c0.71-0.27,1.27-0.83,1.54-1.54l2.8-7.35c0.87-2.29,4.1-2.29,4.99-0.01l2.87,7.4
	c0.27,0.7,0.83,1.26,1.53,1.53l7.22,2.77c2.29,0.88,2.28,4.13-0.01,4.99l-7.3,2.76c-0.72,0.27-1.28,0.84-1.55,1.55l-2.75,7.25
	c-0.87,2.31-4.14,2.3-5-0.01l-2.69-7.21c-0.27-0.72-0.84-1.29-1.56-1.57l-7.36-2.77C858.03,430.34,858.02,427.09,860.32,426.21z"/>
<path class="st7" d="M900.83,381.9l11.15-4.27c1.09-0.42,1.94-1.27,2.36-2.36l4.29-11.24c1.33-3.5,6.28-3.51,7.63-0.02l4.39,11.32
	c0.42,1.08,1.27,1.92,2.35,2.34l11.05,4.24c3.51,1.35,3.49,6.31-0.02,7.64l-11.17,4.22c-1.1,0.41-1.96,1.28-2.38,2.37l-4.21,11.09
	c-1.34,3.53-6.33,3.52-7.65-0.02l-4.12-11.04c-0.41-1.11-1.28-1.98-2.39-2.4l-11.26-4.24C897.33,388.22,897.32,383.24,900.83,381.9z
	"/>
<path class="st7" d="M850.56,372.93l6.65-2.55c0.65-0.25,1.16-0.76,1.41-1.41l2.56-6.7c0.8-2.08,3.74-2.09,4.55-0.01l2.62,6.75
	c0.25,0.64,0.76,1.15,1.4,1.39l6.58,2.53c2.09,0.8,2.08,3.76-0.01,4.56l-6.66,2.52c-0.65,0.25-1.17,0.76-1.42,1.42l-2.51,6.61
	c-0.8,2.1-3.78,2.1-4.56-0.01l-2.46-6.58c-0.25-0.66-0.77-1.18-1.42-1.43l-6.71-2.53C848.48,376.69,848.47,373.73,850.56,372.93z"/>
<g>
	<path class="st9" d="M722.27,411.18c4.22-5.81,6.73-13.04,6.73-20.88c0-13.05-6.93-24.41-17.18-30.33
		c-2.96-1.71-5.16-4.55-6.04-7.95c-3.47-13.48-13.56-24.13-26.42-27.98c-5.9-10.08-16.83-16.86-29.36-16.86
		c-4.77,0-9.31,0.99-13.43,2.76c-5.19-2.57-10.99-4.02-17.12-4.02c-7.85,0-15.16,2.36-21.32,6.44c-2.9,1.92-6.48,2.41-9.68,1.11
		c-2.12-0.86-4.43-1.34-6.85-1.34c-8.05,0-14.92,5.23-17.65,12.6c-0.78,2.12-2.79,3.44-4.97,3.44c-0.01,0-0.03,0-0.04,0
		c-24.34,0-44.07,20.51-44.07,45.81c0,2.18,0.15,4.31,0.43,6.41c0.48,3.5-0.98,6.99-3.8,8.96c-8.78,6.13-14.56,16.55-14.56,28.37
		c0,7.77,2.5,14.94,6.7,20.68c1.98,2.7,1.98,6.36-0.12,8.97c-5.97,7.38-9.57,16.9-9.57,27.29c0,5.8,1.12,11.33,3.16,16.37
		c1.04,2.58,0.58,5.53-1.18,7.64c-6.19,7.44-9.94,17.14-9.94,27.75c0,11.16,4.15,21.31,10.92,28.88c2.23,2.49,2.34,6.28,0.37,8.99
		c-2.71,3.72-4.32,8.35-4.32,13.37c0,9.38,5.59,17.41,13.49,20.68c3.2,1.33,5.17,4.54,4.7,7.98c-0.2,1.5-0.22,3.06-0.01,4.65
		c1.06,8.16,7.88,14.58,16.09,15.15c8.43,0.59,15.69-4.79,18-12.34c8.93-2.24,15.82-10.38,16.41-20.21
		c0.46-7.61-2.77-14.47-8.01-18.82c2.27-0.44,4.41-1.24,6.36-2.34c7.19,5.31,16.09,8.27,25.69,7.77c8.83-0.46,16.93-3.89,23.43-9.33
		c1.61,0.19,3.24,0.3,4.89,0.3c15.05,0,28.2-8.11,35.33-20.2c4.53,2.02,9.47,3.21,14.63,3.38c23.14,0.75,42.13-18.53,42.13-42.42
		c0-6.58-1.44-12.8-4.01-18.36c-1.85-4-0.37-8.83,3.33-11.03c12.3-7.31,20.6-21.08,20.6-36.87c0-7.29-1.77-14.14-4.89-20.14
		C718.72,420.93,719.22,415.36,722.27,411.18z M533.8,568.33c0.68,0.73,1.4,1.42,2.18,2.05c-0.43,0.09-0.85,0.2-1.27,0.31
		C534.45,569.88,534.14,569.1,533.8,568.33z M644.35,445.68c0,9.72,3.15,18.68,8.44,25.83c-10.22,3.4-18.68,10.87-23.62,20.58
		c-4.69-1.87-9.81-2.91-15.17-2.91c-8.45,0-16.29,2.56-22.82,6.93c-2.46-0.48-4.99-0.74-7.58-0.74c-5.25,0-10.26,1.04-14.87,2.92
		c4.36-6.75,6.91-14.88,6.91-23.62c0-15.37-7.86-28.84-19.64-36.28c3.85-5.27,6.27-11.73,6.64-18.75
		c19.21-1.65,34.92-16.11,39.21-35.15c5.31,2.72,11.28,4.26,17.61,4.26c6.26,0,12.19-1.51,17.46-4.18
		c6.08,9.4,15.93,15.96,27.29,17.35c0.7,2.05,1.58,4.01,2.62,5.86C653.5,414.76,644.35,429.1,644.35,445.68z"/>
	<path class="st10" d="M756,1143.18l-5.44-0.09c-1.44-0.44-2.95-0.23-4.47-0.34c-2.7-0.19-5.4-0.38-8.09-0.58
		c-6.02-0.43-12.18-1.69-17.29-5.06c-2.15-1.42-3.87-3.19-5.15-5.44c-0.29-0.51-0.97-1.7-1.56-2.93V840.08l-50-27.68v78.8v255.97
		l4,20.01h100v-4v-10L756,1143.18z"/>
	<path class="st10" d="M672,1143.18l-5.44-0.09c-1.44-0.44-2.95-0.23-4.47-0.34c-2.7-0.19-5.4-0.38-8.09-0.58
		c-6.02-0.43-12.18-1.69-17.29-5.06c-2.15-1.42-3.87-3.19-5.15-5.44c-0.29-0.51-0.97-1.7-1.56-2.93V840.08l-50-27.68v78.8v255.97
		l3,20.01h101v-4v-10L672,1143.18z"/>
	<path class="st11" d="M569.24,766.58c-0.17,0.13-0.33,0.29-0.46,0.47c-0.55,0.73-0.61,1.71-0.64,2.63
		c-2.58,70.55-3.38,142.21-2.38,213.15c0.17,11.84,0.39,23.68,0.66,35.53c0.28,12.24-3.59,31.87,11.54,36.9
		c5.15,1.71,10.72,1.37,16.14,1.16c7.91-0.3,15.83-0.25,23.73,0.15c4.9,0.25,12.62,2.59,16.66-1.31c4.58-4.42,1.15-15.78,1.37-21.56
		c0.33-8.98,0.67-17.96,1.01-26.93c0.7-18.43,1.41-36.86,2.14-55.28c1.23-31.22,2.51-62.44,3.82-93.66c0.08-1.83,2.78-1.9,2.94-0.07
		c0.53,6.02,0.84,12.07,1.14,18.11c1.54,30.16,3.08,60.32,4.62,90.49c1.05,20.53,0.86,41.09,2.2,61.62
		c0.38,5.84-0.43,11.87,0.78,17.64c2.75,13.06,24.78,9.31,34.64,9.45c7.91,0.12,15.81,1.5,23.74,0.79c5.99-0.53,9.02-3.04,9.51-9.21
		c1.5-19.03-0.03-38.09,0.99-57.13c4.16-77.19,9.28-156.54,1.82-234.03c-0.54-5.6-4.23-17.07-2.53-22.27l-5.25,16.16
		c-0.18,0.55-0.67,0.94-1.24,1.01l-144.07,15.34C571.11,765.83,570.01,765.99,569.24,766.58z"/>
	<path class="st10" d="M543.24,365.99c-10.8,10.8-3.03,31.58-0.71,48.7c8.15,60.09,46.06,104.56,89.42,98.68
		c43.36-5.88,75.82-49.79,66.33-119.8c-2.55-18.78-8.62-35.95-17.1-50.5C681.19,343.08,596.24,312.97,543.24,365.99z"/>
	<path class="st10" d="M613.87,543.82c10.82,0.75,21.76,0.26,32.41-1.75c5.57-1.05,11.02-2.57,16.26-4.75
		c0.18-0.07,0.35-0.16,0.53-0.24l-5.8-42.79l-49.35,6.69l1.77,11.93L613.87,543.82z"/>
	<g>
		<circle class="st10" cx="550.85" cy="426.51" r="16.6"/>
		<circle class="st10" cx="692.45" cy="407.31" r="16.6"/>
	</g>
	<path class="st12" d="M680.14,525.46c19.09-2.12,38.75,4.78,55.33,14.93c18.88,11.56,34.93,27.16,52.61,40.47
		c1.65,1.24,3.48,2.52,5.55,2.49c2.22-0.04,4.09-1.58,5.76-3.04l39.59-34.57c4.33-3.78,9.57-7.83,15.21-6.69
		c4.13,0.83,7.16,4.24,9.88,7.46c6.16,7.29,12.31,14.59,18.47,21.88c1.5,1.78,3.07,3.72,3.26,6.03c0.25,3.04-1.94,5.69-4.02,7.93
		c-23.68,25.41-52.06,46.42-83.29,61.64c-9.07,4.42-18.79,8.43-28.86,7.91c-15.38-0.8-28.05-11.79-39.4-22.2
		c1.06,36.6,0.21,73.26-2.54,109.77c-0.47,6.27-1.15,12.94-5.05,17.87c-4.54,5.75-12.28,7.72-19.48,9.13
		c-40.49,7.95-82.22,9.58-123.21,4.79c-3.24-0.38-6.66-0.87-9.2-2.93c-3.61-2.93-4.34-8.07-4.7-12.71
		c-0.98-12.72-0.89-25.39-0.31-38.04c-4.04-0.51-8.03-1.25-11.93-2.28c-18.87-4.98-36.69-18.97-40.25-38.16
		c-1.44-7.78-0.48-15.78,0.64-23.61c3.3-22.96,8.03-45.71,14.15-68.09c3.16-11.56,6.87-23.35,14.44-32.65
		c6.41-7.87,15.13-13.31,24.48-17.02c6.18-2.45,12.6-4.22,19.06-5.75c6.22-1.47,12.37-3.27,18.66-4.42
		c2.14-0.39,6.41-1.36,8.08,0.65C618,532.18,638,541.18,638,541.18s18-9,24-14C665.5,524.26,680.14,525.46,680.14,525.46z"/>
	<path class="st10" d="M855.43,541.49c0,0,5.06-7.6,5.06-10.13c0-4.75,0.6-10.31,2.44-14.7c1.26-3.02,2.93-6.49,5.24-8.85
		c2.26-2.31,5.64-3.79,8.46-5.33c2.06-1.13,4.16-2.15,6.27-3.19c1.69-0.83,3.1-2.09,5.07-1.78c1.49,0.23,3.06,1.27,3.78,2.62
		c0.4,0.73,1.12,4.11,0.4,4.65c0,0-5.06,3.8-5.06,3.8c3.82-0.64,7.01-0.89,10.27-3.06c0.5-0.33,1.01-0.67,1.58-0.87
		c0.86-0.29,1.79-0.24,2.68-0.07c4.44,0.88,7.06,4.89,10.08,7.88c2.86,2.83,5.83,5.54,8.65,8.41c4.54,4.62,8.2,10.09,11.2,15.82
		c0.4,0.76,8.57-9.97,8.71-9.13c1.3,8.02-12.77,25.93-18.34,30.74c-8.8,7.61-20.26,12.31-31.81,13.48
		c-4.09,0.41-9.73,1.1-13.44-1.06c-2.75-1.59-5.27-3.64-7.65-5.72c-5.38-4.7-11.54-10.71-13.64-17.76
		C854.82,545.38,854.63,543.32,855.43,541.49z"/>
	<g>
		<path class="st3" d="M900.48,568.25l-34.09-38.93c-1.22-1.39-1.08-3.5,0.31-4.71l26.91-23.56c1.39-1.22,3.5-1.08,4.71,0.31
			l34.09,38.93c1.22,1.39,1.08,3.5-0.31,4.71l-26.91,23.56C903.81,569.78,901.7,569.64,900.48,568.25z"/>
		<g>
			<g>
				<circle class="st13" cx="900.72" cy="514.99" r="2.55"/>
				<circle class="st13" cx="905.34" cy="520.27" r="2.55"/>
				<circle class="st13" cx="909.96" cy="525.55" r="2.55"/>
				<circle class="st13" cx="914.59" cy="530.83" r="2.55"/>
				<circle class="st13" cx="919.21" cy="536.11" r="2.55"/>
				<g>
					<circle class="st13" cx="898.09" cy="554.6" r="2.55"/>
					<circle class="st13" cx="903.37" cy="549.98" r="2.55"/>
					<circle class="st13" cx="908.65" cy="545.36" r="2.55"/>
					<circle class="st13" cx="913.93" cy="540.73" r="2.55"/>
				</g>
				<g>
					<circle class="st13" cx="893.47" cy="549.32" r="2.55"/>
					<circle class="st13" cx="898.75" cy="544.7" r="2.55"/>
					<circle class="st13" cx="904.03" cy="540.08" r="2.55"/>
					<circle class="st13" cx="909.31" cy="535.45" r="2.55"/>
				</g>
				<g>
					<circle class="st13" cx="888.85" cy="544.04" r="2.55"/>
					<circle class="st13" cx="894.13" cy="539.42" r="2.55"/>
					<circle class="st13" cx="899.4" cy="534.8" r="2.55"/>
					<circle class="st13" cx="904.68" cy="530.18" r="2.55"/>
				</g>
				<g>
					<circle class="st13" cx="884.22" cy="538.76" r="2.55"/>
					<circle class="st13" cx="889.5" cy="534.14" r="2.55"/>
					<circle class="st13" cx="894.78" cy="529.52" r="2.55"/>
					<circle class="st13" cx="900.06" cy="524.9" r="2.55"/>
				</g>
				<g>
					<circle class="st13" cx="879.6" cy="533.49" r="2.55"/>
					<circle class="st13" cx="884.88" cy="528.86" r="2.55"/>
					<circle class="st13" cx="890.16" cy="524.24" r="2.55"/>
					<circle class="st13" cx="895.44" cy="519.62" r="2.55"/>
				</g>
			</g>
			<g>
				<path class="st13" d="M913.68,555.47l-2.48-2.83c-0.37-0.42-0.32-1.05,0.09-1.42l2.83-2.48c0.42-0.37,1.05-0.32,1.42,0.09
					l2.48,2.83c0.37,0.42,0.32,1.05-0.09,1.42l-2.83,2.48C914.68,555.93,914.04,555.89,913.68,555.47z"/>
				<circle class="st3" cx="914.61" cy="552.16" r="1.44"/>
			</g>
			<g>
				<path class="st13" d="M883.33,520.7l-2.48-2.83c-0.37-0.42-0.32-1.05,0.09-1.42l2.83-2.48c0.42-0.37,1.05-0.32,1.42,0.09
					l2.48,2.83c0.37,0.42,0.32,1.05-0.09,1.42l-2.83,2.48C884.33,521.16,883.69,521.12,883.33,520.7z"/>
				<circle class="st3" cx="884.26" cy="517.39" r="1.44"/>
			</g>
		</g>
	</g>
	<circle class="st10" cx="908.5" cy="505.94" r="8.76"/>
	<circle class="st10" cx="920.55" cy="517.98" r="8.76"/>
	<circle class="st10" cx="931.5" cy="528.93" r="8.76"/>
	<path class="st9" d="M664.01,1139.93c-0.28,0.16-0.52,0.37-0.72,0.66c-0.46,0.68-0.48,1.56-0.47,2.38c0,4.36,0.03,8.72,0.04,13.09
		c0.01,2.22,0.01,4.45,0.02,6.67c0.01,1.79-0.45,4,1.48,4.96c0.98,0.49,2.11,0.5,3.2,0.5c33,0.01,66.01,0.03,99.01,0.04
		c1.55,0,2.81-1.27,2.78-2.82c-0.07-3.54-0.28-7.07-1.14-10.5c-1.08-4.33-3.32-8.53-6.97-11.12c-4.03-2.86-9.24-3.42-14.18-3.32
		c-16.49,0.33-32.2,6.95-48.54,9.18c-7.4,1.01-15.45,0.97-21.7-3.12c-3.15-2.07-5.71-5.09-9.2-6.51
		C666.48,1139.55,665.01,1139.36,664.01,1139.93z"/>
	<path class="st9" d="M580.01,1139.93c-0.28,0.16-0.52,0.37-0.72,0.66c-0.46,0.68-0.48,1.56-0.47,2.38c0,4.36,0.03,8.72,0.04,13.09
		c0.01,2.22,0.01,4.45,0.02,6.67c0.01,1.79-0.45,4,1.48,4.96c0.98,0.49,2.11,0.5,3.2,0.5c33,0.01,66.01,0.03,99.01,0.04
		c1.55,0,2.81-1.27,2.78-2.82c-0.07-3.54-0.28-7.07-1.14-10.5c-1.08-4.33-3.32-8.53-6.97-11.12c-4.03-2.86-9.24-3.42-14.18-3.32
		c-16.49,0.33-32.2,6.95-48.54,9.18c-7.4,1.01-15.45,0.97-21.7-3.12c-3.15-2.07-5.71-5.09-9.2-6.51
		C582.48,1139.55,581.01,1139.36,580.01,1139.93z"/>
	<circle class="st14" cx="637.68" cy="555.93" r="3.25"/>
	<circle class="st14" cx="637.68" cy="577.93" r="3.25"/>
	<circle class="st14" cx="637.68" cy="599.93" r="3.25"/>
	<g>
		<path class="st7" d="M657.87,759.93l79.93-111.17c1.9-2.65,1.3-6.34-1.35-8.24l-78.91-56.73c-2.65-1.9-6.34-1.3-8.24,1.35
			L569.37,696.3c-1.9,2.65-1.3,6.34,1.35,8.24l78.91,56.73C652.27,763.18,655.96,762.57,657.87,759.93z"/>
		<path class="st3" d="M661.91,740.04l62.5-86.93c1.9-2.65,1.3-6.34-1.35-8.24l-65.4-47.02c-2.65-1.9-6.34-1.3-8.24,1.35
			l-62.5,86.93c-1.9,2.65-1.3,6.34,1.35,8.24l65.4,47.02C656.32,743.29,660.01,742.69,661.91,740.04z"/>
		<circle class="st3" cx="617.08" cy="726.41" r="4.65"/>
	</g>
	<path class="st10" d="M654.41,707.64c18.75,1.48,35.33-0.94,51.54-10.9c6.43-3.96,17.35-12.04,17.63-20.47
		c0.28-8.43-9.63-7.71-15.31-8.63c-5.33-0.86-10.66-1.73-15.99-2.6c3.27,0.59,8.97-3.67,10.33-6.2c0.01-6.4-7.62-6.01-8.84-5.98
		c-7.51,0.13-15.75-0.85-23.34,0.88c-7.42,1.69-13.43,6.14-19.86,9.91C651.07,667.85,653.3,707.55,654.41,707.64z"/>
	<path class="st12" d="M581.32,600.82c0.05,1.47-0.4,2.93-0.84,4.35c-4.81,15.36-9.61,30.72-14.42,46.09
		c16.38,1.3,32.76,2.61,49.15,3.91c8.01,0.64,16.02,1.27,24.03,1.91c7.38,0.59,16.05-1.9,17.94,7.01
		c1.99,9.38,2.11,19.01,1.49,28.54c-0.54,8.3,1.3,18.3-9.11,20.85c-5.27,1.29-10.67-0.29-16.01,0.27
		c-13.19,1.36-26.38,2.73-39.63,3.21c-16.51,0.6-33.33-0.21-48.97-5.54c-12.02-4.1-23.36-11.08-31.49-20.95
		c-9.86-11.96-10.13-26.86-7.06-41.55c2.22-10.63,6.12-20.83,9.47-31.16c7.95-24.53,14.95-51.35,32.13-70.58
		c10.89,16.08,20.22,32.38,31.11,48.46c0.93,1.37,1.88,2.8,2.14,4.43C581.29,600.32,581.31,600.57,581.32,600.82z"/>
	<g>
		<g>
			<path class="st9" d="M583.89,415.12c-0.74,0.1-1.5-0.26-1.87-0.96c-0.47-0.9-0.13-2,0.77-2.47c9.62-5.06,20.98-6.63,31.62-4.39
				c0.99,0.21,1.62,1.18,1.42,2.17c-0.21,0.99-1.18,1.62-2.17,1.42c-9.8-2.06-20.29-0.61-29.16,4.05
				C584.3,415.03,584.1,415.09,583.89,415.12z"/>
		</g>
		<g>
			<path class="st9" d="M649.02,406.29c-0.74,0.1-1.5-0.26-1.87-0.96c-0.47-0.9-0.13-2,0.77-2.47c9.62-5.05,20.98-6.63,31.62-4.39
				c0.99,0.21,1.62,1.18,1.42,2.17c-0.21,0.99-1.18,1.62-2.17,1.42c-9.81-2.07-20.29-0.61-29.16,4.05
				C649.43,406.2,649.23,406.26,649.02,406.29z"/>
		</g>
	</g>
	<g>
		<path class="st9" d="M680.51,425.74c-1.74-1.88-3.93-3.24-6.34-4.18c-2.4-0.95-5.09-1.35-7.76-1.07
			c-1.34,0.11-2.64,0.52-3.89,0.95l-1.8,0.88c-0.61,0.27-1.1,0.74-1.63,1.11c-1.11,0.71-1.92,1.76-2.8,2.68
			c-0.79,1-1.43,2.11-2.03,3.2c-0.07,0.12-0.06,0.27,0.02,0.38c0.11,0.16,0.34,0.2,0.5,0.09l0.05-0.04
			c1.02-0.71,1.86-1.55,2.82-2.23c0.99-0.63,1.86-1.37,2.9-1.83c0.68-0.39,1.38-0.7,2.09-0.97c-2.03,1.72-3.17,4.4-2.79,7.24
			c0.6,4.41,4.66,7.51,9.08,6.91s7.51-4.66,6.91-9.08c-0.35-2.6-1.91-4.73-4.03-5.93c0.53,0.08,1.06,0.17,1.59,0.29
			c2.22,0.5,4.47,1.25,6.69,2.18l0.03,0.01c0.13,0.05,0.28,0.03,0.39-0.07C680.64,426.12,680.65,425.89,680.51,425.74z"/>
		<path class="st9" d="M615.38,434.57c-1.74-1.88-3.93-3.24-6.34-4.18c-2.4-0.95-5.09-1.35-7.76-1.07
			c-1.34,0.11-2.64,0.52-3.89,0.95l-1.8,0.88c-0.61,0.27-1.1,0.74-1.63,1.11c-1.11,0.71-1.92,1.76-2.8,2.68
			c-0.79,1-1.43,2.11-2.03,3.2c-0.07,0.12-0.06,0.27,0.02,0.38c0.11,0.16,0.34,0.2,0.5,0.09l0.05-0.04
			c1.02-0.71,1.86-1.55,2.82-2.23c0.99-0.63,1.86-1.37,2.9-1.83c0.68-0.39,1.38-0.7,2.09-0.97c-2.03,1.72-3.17,4.4-2.79,7.24
			c0.6,4.41,4.66,7.51,9.08,6.91c4.41-0.6,7.51-4.66,6.91-9.08c-0.35-2.6-1.91-4.73-4.03-5.93c0.53,0.08,1.06,0.17,1.59,0.29
			c2.22,0.5,4.47,1.25,6.69,2.18l0.03,0.01c0.13,0.05,0.28,0.03,0.39-0.07C615.51,434.95,615.52,434.72,615.38,434.57z"/>
	</g>
	<path class="st9" d="M627.76,476.28c3.07,0.11,6.02,0.32,8.82,0.35c2.81,0.05,5.5-0.06,8.14-0.34c1.32-0.16,2.62-0.34,3.93-0.59
		c1.31-0.25,2.61-0.57,3.94-0.91c2.65-0.71,5.32-1.7,8.38-2.7l0.04-0.01c0.73-0.24,1.51,0.16,1.75,0.88
		c0.12,0.37,0.08,0.76-0.09,1.08c-1.61,3.03-4.14,5.48-7.1,7.33c-1.49,0.9-3.1,1.65-4.77,2.22c-1.68,0.54-3.4,0.94-5.15,1.14
		c-3.5,0.37-7.03,0.02-10.3-0.99c-1.64-0.51-3.21-1.18-4.69-2.03c-0.74-0.42-1.45-0.88-2.14-1.4c-0.69-0.52-1.31-1.07-1.96-1.75
		c-0.52-0.55-0.49-1.41,0.05-1.92c0.27-0.26,0.63-0.38,0.98-0.37L627.76,476.28z"/>
	<path class="st9" d="M565.29,468.87c0.63-2.38,0.84-4.93,0.54-7.58c-1.08-9.42-8.7-17-18.13-18C535.4,442,525,451.62,525,463.67
		c0,11.31,9.17,20.48,20.48,20.48c0.08,0,0.15-0.01,0.23-0.01c-1.94,3.48-2.83,7.63-2.18,12.03c1.24,8.38,8.15,15,16.57,15.9
		c11.35,1.21,20.95-7.65,20.95-18.76c0-8.12-5.13-15.02-12.32-17.68C565.99,474.62,564.54,471.71,565.29,468.87z"/>
	<path class="st9" d="M708,363.18l-30-29l-64-10c0,0-26,7-28,8s-40,20-40,20l-9.67,26.38l-5.61,3.91l8.67,30.59
		c0,0,62.29-32.89,75.09-48.65c2.1-2.58,3.2-4.74,3.61-6.54c24.95,15.94,52.23,26.6,81.4,32.88c0.01-3.05-0.28-6.05-0.69-9.04
		l8.96,3.7L708,363.18z"/>
</g>
<path class="st9" d="M304.2,72.88c0.1-17.52-0.33-35.04-1.12-52.54c-0.07-1.44-1.51-2.4-2.86-1.9l-7.61,2.79
	c-1.5,0.55-3.04-0.68-2.84-2.26l1.82-14.55c0.15-1.21-0.75-2.31-1.97-2.39c-33.17-2.21-66.82-4.18-99.25,2.97
	c-23.18,5.11-46.58,15.92-59.3,35.96c-12.59,19.83-12.57,45.08-9.36,68.35c2.86,20.71,7.93,41.16,15.65,60.6
	c4.02,10.14,8.32,18.36,16.56,25.55c8.3,7.24,17.23,13.88,27.18,18.69c29.67,14.33,75.85,7.02,93.91-22.92
	c11.24-18.64,25.13-39.42,26.86-61.12C303.38,111.07,304.1,91.98,304.2,72.88z"/>
<path class="st9" d="M112,1087.23c-0.99,6.31-12.34,81-9,81c0,0,154,0,154,0s27.97,0,28,0c1.98-0.12,4.07-6.44,4.7-7.85
	c4.56-10.26,5.14-24.48-2.34-33.57c-8.69-10.56-22.57-12.37-35.36-11.57c-7.21,0.45-14.44,0.83-21.59,1.86
	c-6.7,0.97-13.21,2.9-20.07,2.86c-11.28-0.06-21.25-5.88-27.86-14.9c-4.12-5.61-2.93-12.29-3.03-18.82
	c-0.01-0.95,0.26-13.98-0.45-14c-0.02,0-51-2-51-2S112,1087.23,112,1087.23z"/>
<path class="st9" d="M226,1087.23c-0.99,6.31-12.34,81-9,81c0,0,154,0,154,0s27.97,0,28,0c1.98-0.12,4.07-6.44,4.7-7.85
	c4.56-10.26,5.14-24.48-2.34-33.57c-8.69-10.56-22.57-12.37-35.36-11.57c-7.21,0.45-14.44,0.83-21.59,1.86
	c-6.7,0.97-13.21,2.9-20.07,2.86c-11.28-0.06-21.25-5.88-27.86-14.9c-4.12-5.61-2.93-12.29-3.03-18.82
	c-0.01-0.95,0.26-13.98-0.45-14c-0.02,0-51-2-51-2S226,1087.23,226,1087.23z"/>
<g>
	<path class="st15" d="M179.09,244.24l-29.59,1.97c-0.13,0.01-0.27,0.02-0.4,0.04l-7.12,0.95c-3.92,0.52-6.34,4.57-4.93,8.27
		l7.45,19.65c0.51,1.36,1.49,2.49,2.76,3.19l20.35,11.31c2.68,1.49,6.06,0.77,7.9-1.68l11.1-14.81c0.45-0.6,0.79-1.28,0.99-2
		l5.45-19.08c1.12-3.93-1.83-7.83-5.91-7.83h-7.65C179.37,244.23,179.23,244.23,179.09,244.24z"/>
	<path class="st15" d="M244.85,244.24l29.59,1.97c0.13,0.01,0.27,0.02,0.4,0.04l7.12,0.95c3.92,0.52,6.34,4.57,4.93,8.27
		l-7.45,19.65c-0.51,1.36-1.49,2.49-2.76,3.19l-20.35,11.31c-2.68,1.49-6.06,0.77-7.9-1.68l-11.1-14.81c-0.45-0.6-0.79-1.28-0.99-2
		l-5.45-19.08c-1.12-3.93,1.83-7.83,5.91-7.83h7.65C244.58,244.23,244.71,244.23,244.85,244.24z"/>
</g>
<path class="st10" d="M209.98,648.95l4.15,0.28c6.17,0.41,11.04,5.41,11.28,11.59c2.21,56.96,7.47,113.78,8.71,170.79
	c1.22,55.59-5.23,109.71-9.96,164.95c-2.35,27.42-4.7,54.84-7.05,82.27c-0.61,7.06,4.96,13.12,12.05,13.12h67.38
	c6.42,0,11.72-5.02,12.07-11.43c4.4-80.53,12.92-160.88,13.36-241.59c0.27-50.22-1.02-100.51-1.55-150.73
	c-0.46-43.2-0.92-86.4-1.38-129.59c-0.07-6.63-5.46-11.96-12.09-11.96H127.02c-6.63,0-12.02,5.33-12.09,11.96
	c-0.79,73.99-1.57,147.98-2.36,221.98c-1.06,99.97-6.21,199.91-10.1,299.81c-0.27,6.86,5.22,12.56,12.08,12.56h67.68
	c6.54,0,11.9-5.21,12.08-11.75c3.72-131.46,8.19-264.37,13.31-396.4c0.31-7.99,0.62-15.99,0.93-23.98
	c0.24-6.18,5.11-11.18,11.28-11.59l4.15-0.28"/>
<path class="st16" d="M134.35,66.22c-13.31,10.14-7.94,33.84-7.94,52.77c0,66.43,34.61,120.29,82.55,120.29
	s89.64-42.89,89.64-120.29c0-20.76-4.07-40.29-11.13-57.34C287.47,61.65,199.69,16.46,134.35,66.22z"/>
<g>
	<g>
		<path class="st9" d="M159.16,125.98c-0.82,0-1.59-0.51-1.89-1.32c-0.38-1.04,0.16-2.19,1.2-2.57c5.65-2.06,11.58-3.1,17.65-3.1
			c5.95,0,11.78,1,17.33,2.98c1.04,0.37,1.59,1.52,1.22,2.56c-0.37,1.04-1.52,1.59-2.56,1.22c-5.12-1.83-10.49-2.75-15.98-2.75
			c-5.59,0-11.07,0.96-16.27,2.86C159.62,125.94,159.39,125.98,159.16,125.98z"/>
	</g>
	<g>
		<path class="st9" d="M231.17,125.98c-0.82,0-1.59-0.51-1.89-1.32c-0.38-1.04,0.16-2.19,1.2-2.57c5.65-2.06,11.58-3.1,17.65-3.1
			c5.95,0,11.78,1,17.33,2.98c1.04,0.37,1.59,1.52,1.22,2.56c-0.37,1.04-1.52,1.59-2.56,1.22c-5.12-1.83-10.49-2.75-15.98-2.75
			c-5.59,0-11.07,0.96-16.27,2.86C231.63,125.94,231.39,125.98,231.17,125.98z"/>
	</g>
</g>
<polygon class="st16" points="184.85,247.95 184.85,324.23 239.25,324.23 239.25,222.27 184.69,222.27 "/>
<g>
	<circle class="st16" cx="133.7" cy="133.03" r="18.19"/>
	<circle class="st16" cx="290.25" cy="133.03" r="18.19"/>
</g>
<path class="st9" d="M262.48,151.73c-1.61-2.3-3.79-4.1-6.26-5.49c-2.48-1.37-5.32-2.24-8.27-2.32c-2.94-0.08-5.91,0.68-8.41,2.1
	c-2.49,1.44-4.58,3.4-6.08,5.71c-0.08,0.13-0.09,0.3,0,0.44c0.12,0.19,0.37,0.24,0.56,0.12c2.26-1.45,4.48-2.73,6.79-3.6
	c0.81-0.3,1.62-0.53,2.45-0.72c-2.47,1.57-4.11,4.32-4.11,7.46c0,4.88,3.96,8.84,8.84,8.84c4.88,0,8.84-3.96,8.84-8.84
	c0-2.88-1.39-5.43-3.52-7.04c2.93,0.86,5.82,2.26,8.64,3.91l0.03,0.02c0.13,0.08,0.3,0.07,0.43-0.02
	C262.57,152.16,262.61,151.91,262.48,151.73z"/>
<path class="st9" d="M190.48,151.73c-1.61-2.3-3.79-4.1-6.26-5.49c-2.48-1.37-5.32-2.24-8.27-2.32c-2.94-0.08-5.91,0.68-8.41,2.1
	c-2.49,1.44-4.58,3.4-6.08,5.71c-0.08,0.13-0.09,0.3,0,0.44c0.12,0.19,0.37,0.24,0.56,0.12c2.26-1.45,4.48-2.73,6.79-3.6
	c0.81-0.3,1.62-0.53,2.45-0.72c-2.47,1.57-4.11,4.32-4.11,7.46c0,4.88,3.96,8.84,8.84,8.84c4.88,0,8.84-3.96,8.84-8.84
	c0-2.88-1.39-5.43-3.52-7.04c2.93,0.86,5.82,2.26,8.64,3.91l0.03,0.02c0.13,0.08,0.3,0.07,0.43-0.02
	C190.57,152.16,190.61,151.91,190.48,151.73z"/>
<g>
	<path class="st9" d="M211.95,214.14c-10.81,0-20.99-4.76-27.93-13.07c-0.71-0.86-0.6-2.13,0.25-2.84c0.86-0.71,2.13-0.6,2.84,0.25
		c6.17,7.38,15.22,11.62,24.84,11.62c9.64,0,18.71-4.25,24.88-11.67c0.71-0.86,1.98-0.97,2.84-0.26c0.86,0.71,0.97,1.98,0.26,2.84
		C232.99,209.35,222.79,214.14,211.95,214.14z"/>
</g>
<g>
	<path class="st15" d="M118.36,267.75c1.04-0.21,2.09-0.4,3.13-0.61c0.59-0.2,1.16-0.38,1.72-0.56
		C125.56,265.85,115.94,268.24,118.36,267.75z"/>
	<path class="st15" d="M310.58,403.02c0.58-2.22,3.83-1.86,3.92,0.43c0.68,17.94,1.36,35.88,2.04,53.82
		c0.57,15.17,1.04,30.35,1.72,45.52c0.64,14.16,2.73,24.17,4.12,49.07c0.72,12.96-24.7,7.28-34.68,6.88
		c-19.02-0.77-38.05-1.34-57.08-1.77c-38.07-0.86-76.16-0.99-114.22,0.24c-1.65,0.05-3.42,0.08-4.82-0.81
		c-6.45-4.11-0.25-34.08,0.03-40.95l0.1-2.43c0.11-2.58-3.73-2.85-3.97-0.28c-2.93,31.25-3.38,62.52,1.35,95.09
		c2.04,14.01,3.32,24.13-12.96,28.21c-9.93,2.49-20.39,0.31-30.46,1.28c-12.36,1.18-18.31-6.5-20.41-17.75
		c-2.81-15.06-4.92-31.34-5.26-46.61c-0.81-36.25,2.97-72.02,5.48-108.17c1.97-28.33,5.15-56.57,9.54-84.63
		c3.57-22.82,5.1-50.42,17.32-70.6c8.08-13.33,19.91-31.41,34.94-37.34c19.25-7.59,41.01-11.07,61.68-10.89
		c5.26,0.04,10.54,0.4,15.84,1.14c0.45,0.06,0.85,0.29,1.17,0.62c5.74,6.01,12,12.02,17.29,18.44c3.33,4.03,8.59,11.66,14.74,10.71
		c5.9-0.9,16.05-24.34,19.88-29.3c3.86-5,13.94-1.58,19.08-1.05c16.83,1.72,33.58,5.4,49.25,11.85
		c11.08,4.56,22.38,9.68,29.28,19.79c14.8,21.69,22.47,47.41,31.38,71.83c15.75,43.18,26.57,88.86,23.26,135.1
		c-0.07,1.02-0.9,1.81-1.92,1.85l-56.02,1.93c-0.12,0-0.25,0-0.37-0.02l-43.63-6.64c-1.17-0.18-1.93-1.33-1.63-2.47L310.58,403.02z"
		/>
</g>
<path class="st1" d="M167.69,485.71l102.01,2.91l-73.35,47.51l0,0l-33.87-45.17C160.73,488.62,163.06,486.27,167.69,485.71z"/>
<path class="st0" d="M227.47,390.88l214.19,8.35c3.41,0.13,5.67,3.02,5.04,6.45l-24.83,136.06c-0.63,3.43-3.9,6.1-7.31,5.97
	l-214.19-8.35c-3.41-0.13-5.67-3.02-5.04-6.45l24.83-136.06C220.79,393.42,224.06,390.75,227.47,390.88z"/>
<path class="st16" d="M438.95,527.41c-0.19-0.94-0.42-1.88-0.67-2.79c-1.08-3.89-2.3-8.24-4.49-11.66
	c-2.34-3.67-6.8-1.01-10.23-1.48c-3.83-0.53-7.66-1.06-11.5-1.54c-3.72-0.47-7.52-1.33-11.23-0.61c-2.64,0.51-8.63,1.81-10.55,3.75
	c-1.44,1.46-1.49,4.25-0.8,6.45c-4.45-0.35-8.89-0.4-13.16-0.07c-8.72,0.66-14.75,4.64-21.77,9.37c-2.55,1.72-2.85,7.19-2.65,9.89
	c0.25,3.5,3.63,6.17,3.8,9.32c0.19,3.52-0.68,9.37,1.57,12.28c4.08,5.28,14.75,4.9,20.65,5.36c24.59,1.89,50.29-2.63,60.55-28.29
	C439.73,534.2,439.61,530.74,438.95,527.41z"/>
<path class="st2" d="M168.22,780.23H1.78c-0.98,0-1.78-0.8-1.78-1.78V664.01c0-0.98,0.8-1.78,1.78-1.78h166.44
	c0.98,0,1.78,0.8,1.78,1.78v114.44C170,779.43,169.2,780.23,168.22,780.23z"/>
<g>
	<path class="st14" d="M102.9,757.59c0.68-0.86,0.54-2.1-0.32-2.78c0,0,0,0,0,0l-24.4-19.33c-0.86-0.68-2.1-0.54-2.79,0.32
		c-0.68,0.86-0.54,2.1,0.32,2.78c0,0,0,0,0,0l24.41,19.34C100.97,758.59,102.22,758.45,102.9,757.59z"/>
	<path class="st14" d="M123.06,731.82c0.01-4.28-2.17-8.28-5.79-10.57c3.62-2.3,5.8-6.29,5.79-10.57c0-6.92-5.63-12.55-12.55-12.55
		c-1.09,0.02-1.96,0.93-1.94,2.02c0.02,1.06,0.88,1.92,1.94,1.94c4.74-0.05,8.63,3.76,8.67,8.51s-3.76,8.63-8.51,8.67
		c-0.06,0-0.11,0-0.17,0c-1.09,0-1.98,0.89-1.98,1.98s0.89,1.98,1.98,1.98l0,0c4.74-0.05,8.63,3.76,8.67,8.51
		c0.05,4.74-3.76,8.63-8.51,8.67c-0.06,0-0.11,0-0.17,0c-1.09,0.02-1.96,0.93-1.94,2.02c0.02,1.06,0.88,1.92,1.94,1.94
		C117.43,744.38,123.06,738.74,123.06,731.82z"/>
	<path class="st14" d="M102.02,742.78c0.52-0.06,1-0.33,1.32-0.74l0,0c0.68-0.86,0.53-2.11-0.33-2.79l-22.87-18l22.87-18.01
		c0.85-0.69,0.97-1.94,0.28-2.79c-0.67-0.83-1.88-0.97-2.73-0.33l-24.85,19.56c-0.86,0.68-1.01,1.92-0.33,2.78
		c0.1,0.12,0.21,0.23,0.33,0.33l24.85,19.56C100.97,742.7,101.5,742.85,102.02,742.78z"/>
	<path class="st14" d="M78.17,707.03l24.4-19.33c0.89-0.64,1.08-1.88,0.44-2.77c-0.64-0.89-1.88-1.08-2.77-0.44
		c-0.04,0.03-0.09,0.07-0.13,0.1l-24.41,19.33c-0.48,0.38-0.75,0.95-0.75,1.55c0,0.45,0.15,0.88,0.43,1.23
		C76.07,707.56,77.31,707.71,78.17,707.03z"/>
</g>
<path class="st16" d="M119,662.23c1,0-2.01-9.38-4.74-17.55c-2.67-7.98-8.22-14.1-13.08-20.77c-4.57,1.01-48,7.81-47.97,9.04
	c0.42,20.79,4.89,38.76,17.63,55.51c5.05,6.64,15.15,17.78,24.44,17.16c9.3-0.62,9.33-11.05,9.72-17.4c0.37-5.96-1.37-20.04-1-26
	C104,662.23,118.5,662.23,119,662.23z"/>
<path class="st9" d="M300.39,114.08L303,93.23l-13-50l-25-18c0,0-56-10-62-9s-57,13-57,13l-25,44l4.61,38.68
	c-0.33,0.62-1.76,3.32-1.76,3.32c-0.26,0.49,0.65,2.8,0.78,3.39c0.28,1.22,0.55,2.45,0.83,3.67c0.55,2.45,1.11,4.9,1.7,7.34
	c1.11,4.58,2.35,9.13,3.93,13.57c1.33,3.76,2.46,7.58,3.64,11.39c0.48,1.56,5.06,6.05,5.96,2.61c1.02-3.91-0.27-8.07-0.77-11.97
	c-0.54-4.22-0.87-8.52-1.2-12.76c-0.76-9.79-0.57-19.61,0.25-29.46c0.85-10.22,5.46-18.5,10.64-27.13c2.11-3.51,5.89-5.67,9.99-5.71
	c0,0,109.87-0.89,109.94-0.89c15.82-0.13,17.35,29.37,16.47,39.94c-0.65,7.75,0.73,15.49,0.13,23.24
	c-0.59,7.59-1.49,15.16-1.96,22.76c-0.3,4.89,4.99,2.51,5.96-0.64c1.17-3.81,2.3-7.63,3.64-11.38c1.58-4.45,2.82-8.99,3.93-13.57
	c0.59-2.44,1.15-4.89,1.7-7.34c0.28-1.22,0.55-2.45,0.83-3.67c0.13-0.59,1.04-2.9,0.78-3.39C301,115.23,300.43,114.16,300.39,114.08
	z"/>
<path class="st15" d="M1293.12,337.19c-7.3-0.29-14.57-1.28-21.74-3.17c-9.67-2.55-18.14-7.37-27.93-9.65
	c-10.2-2.38-21.57-3.46-29.32-11.33c-3.82-3.88-6.18-8.93-8.35-13.92c-18.78-43.06-31.34-89.85-23.95-137.01
	c3.77-24.05,9.15-50.42,23.73-70.9c24.27-34.09,71.29-43.66,109.44-35.98c29.9,6.03,50.9,18.55,73,40
	c22.95,22.27,19.28,82.47,21,113c1.36,24.09,28.98,95.03,26,119c-2.68,21.57-23.04-25.45-40.87-13.01
	c-14.36,10.02-32.17,11.9-48.85,15.42C1327.72,333.33,1311.37,337.92,1293.12,337.19z"/>
<path class="st16" d="M1149.62,403.48c-1.81,4.86-14.48,56.79-15.76,56.6c-18.69-2.68-37.52-4.49-56.16-7.48
	c-2.59-0.41-41.42-9.12-41.01-10.35c0,0-17.17,46.25-17.17,46.25c10.59,2.68,21.17,5.35,31.76,8.03c17.8,4.5,35.6,9,53.41,13.51
	c17.64,4.46,35.45,6.88,53.43,9.43c9.35,1.32,18.37-4.04,21.66-12.89l30.98-83.24C1210.76,423.35,1149.62,403.48,1149.62,403.48z"/>
<path class="st15" d="M1253.42,1096.97c-2.9-0.4-5.5,1.79-5.6,4.72c-0.29,8.89-0.82,25.53-0.82,25.54
	c-0.07,2.15-17.12,5.01-19.41,5.6c-15.08,3.86-30.09,8.35-45.3,11.67c-6.12,1.35-11.77,1.5-16.24,6.37
	c-2.47,2.7-7.06,8.51-7.06,12.36l0,0c0,2.75,2.25,4.97,5,4.93l96.12-0.36c11.65-0.17,23.3-0.33,34.96-0.49
	c2.71-0.04,4.89-2.25,4.87-4.96c-0.12-17.96-0.56-36.93-0.87-54.89c-0.04-2.43-1.85-4.47-4.26-4.8L1253.42,1096.97z"/>
<path class="st15" d="M1347.42,1097.04c-2.9-0.4-5.5,1.79-5.6,4.72c-0.29,8.89-0.82,25.53-0.82,25.54
	c-0.07,2.15-17.12,5.01-19.41,5.6c-15.08,3.86-30.09,8.35-45.3,11.67c-6.12,1.35-11.77,1.5-16.24,6.37
	c-2.47,2.7-7.06,8.51-7.06,12.36l0,0c0,2.75,2.25,4.97,5,4.93l96.12-0.36c11.65-0.17,23.3-0.33,34.96-0.49
	c2.71-0.04,4.89-2.25,4.87-4.96c-0.12-17.96-0.56-36.93-0.87-54.89c-0.04-2.43-1.85-4.47-4.26-4.8L1347.42,1097.04z"/>
<path class="st16" d="M1207.34,114.86c-12.53,11.43-4.97,34.88-3.27,53.99c5.97,67.07,45.76,118.34,94.16,114.03
	c48.4-4.31,86.65-51.36,79.7-129.5c-1.87-20.96-7.73-40.32-16.39-56.89C1361.53,96.49,1268.84,58.75,1207.34,114.86z"/>
<g>
	<circle class="st16" cx="1212.69" cy="182.37" r="18.43"/>
	<circle class="st16" cx="1370.75" cy="168.3" r="18.43"/>
</g>
<path class="st9" d="M1412.53,597.67c-2.13-11.7-4.73-23.34-7.89-34.9c-0.53-1.95-1.16-4.03-2.74-5.29
	c-1.71-1.37-4.08-1.44-6.27-1.45c-57.39-0.2-114.78-0.39-172.17-0.59c-2.09-0.01-4.33,0.03-6.04,1.24
	c-1.81,1.29-2.57,3.57-3.18,5.71c-12.86,45.12-10.33,93.01-7.69,139.85c0,68.23,7.75,137.39,11.59,205.53
	c1.97,35.02,3.95,70.03,5.92,105.05c1.71,30.38,8.19,61.16,12.54,91.54c0.31,2.15,2.14,3.75,4.32,3.75l60.22-0.02
	c2.4,0,4.36-1.95,4.37-4.35l0.59-160.36c0.3-80.41,0.59-160.85,4.53-241.16c11.55,132.72,17.45,265.94,17.67,399.16
	c0,2.27,0.18,4.89,2.01,6.23c1.29,0.95,3.03,0.94,4.63,0.89l62.64-1.92c2.32-0.07,4.18-1.94,4.23-4.26
	c1.84-78.01,3.75-156.05,9.28-233.89C1417.5,778.19,1428.61,686.05,1412.53,597.67z"/>
<polygon class="st16" points="1275.84,276.15 1279.01,311.82 1328.48,307.42 1324.23,259.74 1274.62,264.15 "/>
<path class="st16" d="M1047.65,447.29c0,0-7.46-7.51-8.03-10.39c-1.06-5.41-2.99-11.6-6.06-16.19c-2.11-3.16-4.78-6.73-7.94-8.9
	c-3.09-2.12-7.26-3.05-10.82-4.18c-2.59-0.82-5.22-1.52-7.84-2.23c-2.1-0.57-4-1.68-6.17-0.89c-1.65,0.6-3.19,2.13-3.72,3.83
	c-0.29,0.92-0.35,4.93,0.59,5.38c0,0,6.61,3.19,6.61,3.19c-4.49,0.13-8.18,0.55-12.37-1.19c-0.65-0.27-1.3-0.54-1.99-0.63
	c-1.04-0.14-2.1,0.12-3.07,0.52c-4.86,2-6.94,7.15-9.71,11.22c-2.63,3.86-5.4,7.61-7.97,11.51c-4.13,6.28-7.08,13.32-9.21,20.51
	c-0.28,0.95-11.99-9.43-11.96-8.44c0.32,9.42,20.34,26.66,27.74,30.89c11.72,6.69,25.81,9.48,39.21,8.23
	c4.74-0.44,11.32-0.92,15.06-4.21c2.77-2.43,5.18-5.32,7.43-8.23c5.07-6.56,10.74-14.77,11.56-23.26
	C1049.21,451.58,1048.97,449.19,1047.65,447.29z"/>
<g>
	<path class="st3" d="M1000.45,476.61l25.95-44.78c0.93-1.6,0.38-3.64-1.22-4.57l-30.95-17.93c-1.6-0.93-3.64-0.38-4.57,1.22
		l-25.95,44.78c-0.93,1.6-0.38,3.64,1.22,4.57l30.95,17.93C997.48,478.75,999.53,478.21,1000.45,476.61z"/>
	<g>
		<g>
			<circle class="st13" cx="989.95" cy="424.4" r="2.55"/>
			<circle class="st13" cx="986.44" cy="430.47" r="2.55"/>
			<circle class="st13" cx="982.92" cy="436.54" r="2.55"/>
			<circle class="st13" cx="979.4" cy="442.62" r="2.55"/>
			<circle class="st13" cx="975.88" cy="448.69" r="2.55"/>
			<g>
				<circle class="st13" cx="1000.17" cy="462.76" r="2.55"/>
				<circle class="st13" cx="994.1" cy="459.24" r="2.55"/>
				<circle class="st13" cx="988.03" cy="455.72" r="2.55"/>
				<circle class="st13" cx="981.95" cy="452.21" r="2.55"/>
			</g>
			<g>
				<circle class="st13" cx="1003.69" cy="456.69" r="2.55"/>
				<circle class="st13" cx="997.61" cy="453.17" r="2.55"/>
				<circle class="st13" cx="991.54" cy="449.65" r="2.55"/>
				<circle class="st13" cx="985.47" cy="446.13" r="2.55"/>
			</g>
			<g>
				<circle class="st13" cx="1007.2" cy="450.62" r="2.55"/>
				<circle class="st13" cx="1001.13" cy="447.1" r="2.55"/>
				<circle class="st13" cx="995.06" cy="443.58" r="2.55"/>
				<circle class="st13" cx="988.99" cy="440.06" r="2.55"/>
			</g>
			<g>
				<circle class="st13" cx="1010.72" cy="444.55" r="2.55"/>
				<circle class="st13" cx="1004.65" cy="441.03" r="2.55"/>
				<circle class="st13" cx="998.58" cy="437.51" r="2.55"/>
				<circle class="st13" cx="992.51" cy="433.99" r="2.55"/>
			</g>
			<g>
				<circle class="st13" cx="1014.24" cy="438.47" r="2.55"/>
				<circle class="st13" cx="1008.17" cy="434.96" r="2.55"/>
				<circle class="st13" cx="1002.1" cy="431.44" r="2.55"/>
				<circle class="st13" cx="996.03" cy="427.92" r="2.55"/>
			</g>
		</g>
		<g>
			<path class="st13" d="M985.05,466.62l1.88-3.25c0.28-0.48,0.11-1.1-0.37-1.37l-3.25-1.88c-0.48-0.28-1.1-0.11-1.37,0.37
				l-1.88,3.25c-0.28,0.48-0.11,1.1,0.37,1.37l3.25,1.88C984.15,467.26,984.77,467.1,985.05,466.62z"/>
			<circle class="st3" cx="983.49" cy="463.55" r="1.44"/>
		</g>
		<g>
			<path class="st13" d="M1008.12,426.65l1.88-3.25c0.28-0.48,0.11-1.1-0.37-1.37l-3.25-1.88c-0.48-0.28-1.1-0.11-1.37,0.37
				l-1.88,3.25c-0.28,0.48-0.11,1.1,0.37,1.37l3.25,1.88C1007.22,427.29,1007.84,427.13,1008.12,426.65z"/>
			<circle class="st3" cx="1006.56" cy="423.58" r="1.44"/>
		</g>
	</g>
</g>
<circle class="st16" cx="979.3" cy="418.7" r="10.16"/>
<circle class="st16" cx="968.28" cy="435.1" r="10.16"/>
<circle class="st16" cx="958.27" cy="450.01" r="10.16"/>
<path class="st16" d="M1393,591.22l-7,37c0,0,4-1,6-1s12,0,12,0v-21L1393,591.22z"/>
<g>
	<path class="st2" d="M1329.99,647.66l154.96-60.73c0.92-0.36,1.95,0.09,2.31,1.01l41.76,106.54c0.36,0.92-0.09,1.95-1.01,2.31
		l-154.96,60.73c-0.92,0.36-1.95-0.09-2.31-1.01l-41.76-106.55C1328.62,649.05,1329.07,648.02,1329.99,647.66z"/>
	<g>
		<path class="st14" d="M1399.06,644.9c-0.32,1.05,0.27,2.15,1.31,2.47c0,0,0,0,0,0l29.78,9.09c1.05,0.32,2.16-0.27,2.48-1.31
			c0.32-1.05-0.27-2.15-1.31-2.48c0,0,0,0,0,0l-29.78-9.1C1400.49,643.26,1399.38,643.85,1399.06,644.9z"/>
		<path class="st14" d="M1389.7,676.25c1.55,3.99,5.04,6.91,9.25,7.73c-2.53,3.46-3.11,7.97-1.53,11.96
			c2.53,6.45,9.82,9.63,16.27,7.11c1.01-0.42,1.49-1.58,1.07-2.59c-0.41-0.98-1.52-1.47-2.52-1.1c-4.4,1.77-9.4-0.36-11.18-4.76
			c-1.77-4.4,0.36-9.4,4.76-11.18c0.05-0.02,0.1-0.04,0.15-0.06c1.02-0.4,1.52-1.55,1.12-2.57s-1.55-1.52-2.57-1.12l0,0
			c-4.4,1.77-9.4-0.36-11.18-4.76s0.36-9.4,4.76-11.18c0.05-0.02,0.1-0.04,0.15-0.06c1.01-0.42,1.49-1.58,1.07-2.59
			c-0.41-0.98-1.52-1.47-2.52-1.1C1390.36,662.5,1387.17,669.8,1389.7,676.25z"/>
		<path class="st14" d="M1405.28,658.37c-0.46,0.25-0.81,0.67-0.96,1.17l0,0c-0.32,1.05,0.28,2.16,1.33,2.47l27.86,8.42
			l-14.72,25.11c-0.54,0.95-0.2,2.16,0.76,2.7c0.93,0.52,2.11,0.22,2.66-0.69l15.99-27.28c0.55-0.94,0.24-2.16-0.71-2.71
			c-0.14-0.08-0.28-0.14-0.43-0.19l-30.27-9.15C1406.29,658.06,1405.75,658.12,1405.28,658.37z"/>
		<path class="st14" d="M1440.54,682.95l-15.67,26.91c-0.59,0.92-0.32,2.15,0.6,2.74c0.92,0.59,2.15,0.32,2.74-0.6
			c0.03-0.05,0.06-0.09,0.08-0.14l15.67-26.9c0.31-0.52,0.36-1.16,0.13-1.72c-0.16-0.42-0.46-0.76-0.85-0.99
			C1442.3,681.69,1441.09,682.01,1440.54,682.95z"/>
	</g>
</g>
<path class="st16" d="M1434.35,586.68l40.89-44.51l28.63-43.98c6.27-9.63,6.63-21.97,0.93-31.95l-56.58-99.12l-56.78,26.47
	l33.77,52.23l18.88,34.26c0,0-38.09,69.37-45.85,91.29c-0.76,2.14-6.03,19.58-6.03,19.58c0.03,1.62,0.09,3.22,0.17,4.81
	c0.99,18.77,5.71,35.26,17.45,50.7c5.05,6.64,15.15,17.78,24.44,17.16c9.3-0.62,9.33-11.05,9.72-17.4
	c0.42-6.82-0.22-13.8-0.47-20.62c-0.25-6.67,0.23-13.4-0.84-20.01C1441.54,598.47,1437.62,592.94,1434.35,586.68z"/>
<path class="st2" d="M1458.43,357.01c-0.39-0.77-0.79-1.55-1.19-2.32c-10-19.34-22.8-38.3-41.78-48.96
	c-12.52-7.03-26.92-9.97-41.19-11.53c-12.9-1.41-25.91-1.78-38.87-1.09c-2.93,0.16-5.9,0.37-8.65,1.39
	c-3.51,1.3-6.42,3.82-9.66,5.68c-8.51,4.9-19.59,5-28.19,0.25c-3.25-1.79-6.18-4.23-9.69-5.42c-3.56-1.21-7.42-1.04-11.18-0.85
	c-30.66,1.51-63.96,4.06-86.75,24.62c-27.33,24.64-30.17,62.81-41.05,95.68c-2.64,7.98-3.77,7.69,3.29,11.9
	c17.5,10.43,43.74,12.12,63.45,10.22c4.64,24.78,5.88,50.05,5.6,75.22c-0.14,12.64-0.69,25.27-1.38,37.88
	c-0.37,6.8-5.28,19.55,1.44,24.53c3.88,2.88,13.2,1.22,17.58,1.23c28.61,0.06,57.23-0.69,85.8-2.24
	c15.45-0.84,30.94-1.17,46.34-2.72c7.33-0.74,14.68-0.91,21.98-2.01c7.36-1.11,19.82-2.47,19.31-12.34
	c-2.24-43.65-2.63-86.9-6.72-130.94c0.35,6.45,14.39,20.84,19.92,21.2c5.45,0.36,17.06-7.4,22.34-9.58
	c7.51-3.1,15.03-6.19,22.36-9.72c6.39-3.09,16.7-6.66,21.34-12.35c7.25-8.88-5.48-19.27-9.95-28.04
	C1467.91,376.89,1463.41,366.83,1458.43,357.01z"/>
<g>
	<path class="st14" d="M1360.69,384.12c-1.57-1.06-3.7-0.65-4.76,0.92c0,0,0,0,0,0.01l-30.11,44.63c-1.06,1.57-0.65,3.7,0.92,4.76
		c1.57,1.06,3.7,0.65,4.76-0.91c0,0,0,0,0,0l30.12-44.64C1362.67,387.31,1362.26,385.18,1360.69,384.12z"/>
	<path class="st14" d="M1313.59,352.77c-7.39,0.54-13.98,4.84-17.46,11.38c-4.44-5.93-11.61-9.18-18.99-8.59
		c-11.94,0.91-20.9,11.37-19.99,23.3c0.18,1.88,1.86,3.26,3.74,3.08c1.83-0.18,3.2-1.77,3.09-3.61
		c-0.71-8.17,5.35-15.37,13.52-16.08c8.17-0.71,15.37,5.35,16.08,13.52c0.01,0.09,0.02,0.19,0.02,0.29c0.14,1.89,1.79,3.3,3.68,3.16
		c1.89-0.14,3.3-1.79,3.16-3.68l0,0c-0.71-8.17,5.35-15.37,13.52-16.08s15.37,5.35,16.08,13.52c0.01,0.1,0.02,0.19,0.02,0.29
		c0.18,1.88,1.86,3.26,3.74,3.08c1.83-0.18,3.2-1.77,3.09-3.61C1335.98,360.82,1325.53,351.85,1313.59,352.77z"/>
	<path class="st14" d="M1335.27,387.59c-0.17-0.89-0.7-1.68-1.45-2.18l0,0c-1.57-1.05-3.7-0.63-4.76,0.94l-28.02,41.81l-34.07-37.05
		c-1.31-1.37-3.48-1.42-4.85-0.11c-1.33,1.27-1.42,3.37-0.2,4.75l37.01,40.26c1.28,1.39,3.45,1.48,4.84,0.2
		c0.2-0.18,0.38-0.39,0.53-0.61l30.45-45.43C1335.27,389.41,1335.45,388.48,1335.27,387.59z"/>
	<path class="st14" d="M1276.77,433.43l-36.56-39.52c-1.23-1.44-3.39-1.62-4.83-0.39c-1.44,1.23-1.62,3.39-0.39,4.83
		c0.06,0.07,0.13,0.14,0.2,0.21l36.55,39.53c0.71,0.77,1.73,1.17,2.78,1.09c0.77-0.06,1.5-0.38,2.06-0.9
		C1277.97,436.99,1278.06,434.82,1276.77,433.43z"/>
</g>
<path class="st14" d="M1367.57,166.64l-2.01-2.11l-19.82,18.86c-4.01-8.76-13.09-14.63-23.28-14.01
	c-13.03,0.79-23.01,11.89-22.53,24.86c-3.24-0.98-9.8-2.6-16.79-2.18c-6.75,0.41-13.27,2.98-16.23,4.32
	c-1.01-13.01-12.3-22.9-25.37-22.1c-10.19,0.62-18.51,7.55-21.43,16.75l-22-16.36l-1.74,2.34l22.98,17.1
	c-0.32,1.81-0.46,3.68-0.34,5.6c0.8,13.22,12.2,23.32,25.42,22.52c12.28-0.74,21.86-10.64,22.51-22.64
	c1.68-0.81,8.98-4.16,16.37-4.6c7.48-0.45,14.64,1.67,16.93,2.43c2.03,11.91,12.78,20.66,25.11,19.92
	c13.22-0.8,23.32-12.2,22.52-25.42c-0.12-1.93-0.48-3.78-1.02-5.55L1367.57,166.64z M1244.26,219.3
	c-11.61,0.7-21.63-8.18-22.34-19.79c-0.7-11.61,8.18-21.63,19.79-22.34c11.61-0.7,21.63,8.18,22.34,19.79
	C1264.76,208.58,1255.88,218.6,1244.26,219.3z M1325.19,214.41c-11.61,0.7-21.63-8.18-22.34-19.79
	c-0.7-11.61,8.18-21.63,19.79-22.34c11.61-0.7,21.63,8.18,22.34,19.79C1345.68,203.68,1336.8,213.7,1325.19,214.41z"/>
<path class="st15" d="M1259,108.22c15.35,16.33,34.4,29.88,55.38,38.42c19.03,7.75,41.59,21.14,61.97,21.89
	c6.67,0.24,13.98,0.13,20.35-2.1c9.46-3.31,6.55-23.7,7.01-32.63c1.13-22.02-18.45-34.92-35.97-43.25
	c-24.56-11.68-55.92-23.18-83.46-19.3c-10.82,1.52-20.98,5.04-31.59,7.38c-9.33,2.05-18.56,3.81-27.12,8.48
	c-21.83,11.91-33.52,45.93-36.8,68.94c-1.11,7.79,1.23,14.16,4.24,21.17c0.44,0.91,26.28-10.77,28.61-12.19
	c11.21-6.86,19.7-17.53,26.18-28.79C1249.71,132.92,1262.48,111.93,1259,108.22z"/>
<g>
	<g>
		<path class="st9" d="M1226.81,173.94c-0.83,0.07-1.65-0.37-2.02-1.16c-0.48-1.02-0.04-2.23,0.98-2.7
			c5.52-2.58,11.42-4.17,17.54-4.71c6-0.53,11.98-0.04,17.76,1.46c1.09,0.28,1.74,1.39,1.46,2.48c-0.28,1.09-1.39,1.74-2.48,1.46
			c-5.33-1.38-10.84-1.83-16.38-1.34c-5.65,0.5-11.09,1.97-16.18,4.35C1227.27,173.86,1227.04,173.92,1226.81,173.94z"/>
	</g>
	<g>
		<path class="st9" d="M1299.51,167.47c-0.83,0.07-1.65-0.37-2.02-1.16c-0.48-1.02-0.04-2.23,0.98-2.7
			c5.52-2.58,11.42-4.17,17.54-4.71c6-0.53,11.98-0.04,17.76,1.46c1.09,0.28,1.74,1.39,1.46,2.48c-0.28,1.09-1.39,1.74-2.48,1.46
			c-5.33-1.38-10.84-1.83-16.38-1.34c-5.65,0.5-11.09,1.97-16.18,4.35C1299.97,167.39,1299.74,167.45,1299.51,167.47z"/>
	</g>
</g>
<g>
	<path class="st9" d="M1333.44,190.65c-1.83-2.18-4.2-3.8-6.82-4.98c-2.62-1.16-5.58-1.79-8.56-1.6c-2.98,0.19-5.9,1.22-8.3,2.88
		c-2.39,1.68-4.32,3.85-5.63,6.32c-0.07,0.14-0.06,0.31,0.04,0.44c0.14,0.18,0.4,0.21,0.58,0.07c2.15-1.66,4.28-3.16,6.53-4.24
		c0.79-0.38,1.59-0.68,2.4-0.95c-2.35,1.8-3.77,4.73-3.48,7.9c0.44,4.93,4.79,8.57,9.71,8.13c4.93-0.44,8.57-4.79,8.13-9.71
		c-0.26-2.91-1.89-5.36-4.19-6.8c3.03,0.61,6.08,1.76,9.07,3.17l0.03,0.01c0.14,0.07,0.31,0.05,0.43-0.06
		C1333.57,191.08,1333.59,190.82,1333.44,190.65z"/>
	<path class="st9" d="M1260.75,197.12c-1.83-2.18-4.2-3.8-6.82-4.98c-2.62-1.16-5.58-1.79-8.56-1.6c-2.98,0.19-5.9,1.22-8.3,2.88
		c-2.39,1.68-4.32,3.85-5.63,6.32c-0.07,0.14-0.06,0.31,0.04,0.44c0.14,0.18,0.4,0.21,0.58,0.07c2.15-1.66,4.28-3.16,6.53-4.24
		c0.79-0.38,1.59-0.68,2.4-0.95c-2.35,1.8-3.77,4.73-3.48,7.9c0.44,4.93,4.79,8.57,9.71,8.13c4.93-0.44,8.57-4.79,8.13-9.71
		c-0.26-2.91-1.89-5.36-4.19-6.8c3.03,0.61,6.08,1.76,9.07,3.17l0.03,0.01c0.14,0.07,0.31,0.05,0.43-0.06
		C1260.87,197.55,1260.89,197.29,1260.75,197.12z"/>
</g>
<g>
	<path class="st9" d="M1287.16,248.49c-9.78,0.87-19.38-2.62-26.33-9.57c-0.71-0.72-0.71-1.88,0-2.59c0.72-0.71,1.88-0.71,2.59,0
		c6.18,6.19,14.71,9.29,23.41,8.51c8.72-0.78,16.59-5.36,21.57-12.57c0.57-0.83,1.71-1.04,2.55-0.46c0.83,0.58,1.04,1.72,0.46,2.55
		C1305.82,242.46,1296.98,247.61,1287.16,248.49z"/>
</g>
<path class="st1" d="M305.38,463.92c0.04-0.49,0.08-0.97,0.12-1.46c0.07-0.27,0.14-0.55,0.22-0.82c1.16-4.17,5.35-6.8,9.62-6.02
	c2.64,0.48,4.59,1.93,5.92,4.24c0.04,0.07,0.09,0.14,0.14,0.22c0.05-0.04,0.07-0.06,0.09-0.08c1.72-2.16,3.96-3.31,6.73-3.32
	c2.01-0.01,3.8,0.64,5.34,1.92c1.85,1.54,2.88,3.52,3.06,5.93c0.15,2.11-0.44,4-1.69,5.69c-0.66,0.89-1.53,1.54-2.36,2.24
	c-4.04,3.42-8.09,6.84-12.13,10.26c-0.18,0.15-0.4,0.29-0.63,0.36c-0.52,0.15-0.89-0.12-1.22-0.5c-3.77-4.46-7.55-8.9-11.31-13.37
	c-0.86-1.02-1.42-2.2-1.68-3.52C305.5,465.11,305.46,464.51,305.38,463.92z"/>
</svg>
